G04 #@! TF.GenerationSoftware,KiCad,Pcbnew,(6.0.5)*
G04 #@! TF.CreationDate,2022-05-28T18:11:49+02:00*
G04 #@! TF.ProjectId,minigeki,6d696e69-6765-46b6-992e-6b696361645f,REV1*
G04 #@! TF.SameCoordinates,Original*
G04 #@! TF.FileFunction,Legend,Top*
G04 #@! TF.FilePolarity,Positive*
%FSLAX46Y46*%
G04 Gerber Fmt 4.6, Leading zero omitted, Abs format (unit mm)*
G04 Created by KiCad (PCBNEW (6.0.5)) date 2022-05-28 18:11:49*
%MOMM*%
%LPD*%
G01*
G04 APERTURE LIST*
%ADD10C,0.150000*%
%ADD11C,0.254000*%
%ADD12C,0.120000*%
G04 APERTURE END LIST*
D10*
X88808571Y-78357380D02*
X88808571Y-79166904D01*
X88856190Y-79262142D01*
X88903809Y-79309761D01*
X88999047Y-79357380D01*
X89189523Y-79357380D01*
X89284761Y-79309761D01*
X89332380Y-79262142D01*
X89380000Y-79166904D01*
X89380000Y-78357380D01*
X89808571Y-79309761D02*
X89951428Y-79357380D01*
X90189523Y-79357380D01*
X90284761Y-79309761D01*
X90332380Y-79262142D01*
X90380000Y-79166904D01*
X90380000Y-79071666D01*
X90332380Y-78976428D01*
X90284761Y-78928809D01*
X90189523Y-78881190D01*
X89999047Y-78833571D01*
X89903809Y-78785952D01*
X89856190Y-78738333D01*
X89808571Y-78643095D01*
X89808571Y-78547857D01*
X89856190Y-78452619D01*
X89903809Y-78405000D01*
X89999047Y-78357380D01*
X90237142Y-78357380D01*
X90380000Y-78405000D01*
X91141904Y-78833571D02*
X91284761Y-78881190D01*
X91332380Y-78928809D01*
X91380000Y-79024047D01*
X91380000Y-79166904D01*
X91332380Y-79262142D01*
X91284761Y-79309761D01*
X91189523Y-79357380D01*
X90808571Y-79357380D01*
X90808571Y-78357380D01*
X91141904Y-78357380D01*
X91237142Y-78405000D01*
X91284761Y-78452619D01*
X91332380Y-78547857D01*
X91332380Y-78643095D01*
X91284761Y-78738333D01*
X91237142Y-78785952D01*
X91141904Y-78833571D01*
X90808571Y-78833571D01*
X91570476Y-79452619D02*
X92332380Y-79452619D01*
X92903809Y-78833571D02*
X93046666Y-78881190D01*
X93094285Y-78928809D01*
X93141904Y-79024047D01*
X93141904Y-79166904D01*
X93094285Y-79262142D01*
X93046666Y-79309761D01*
X92951428Y-79357380D01*
X92570476Y-79357380D01*
X92570476Y-78357380D01*
X92903809Y-78357380D01*
X92999047Y-78405000D01*
X93046666Y-78452619D01*
X93094285Y-78547857D01*
X93094285Y-78643095D01*
X93046666Y-78738333D01*
X92999047Y-78785952D01*
X92903809Y-78833571D01*
X92570476Y-78833571D01*
X93760952Y-78357380D02*
X93951428Y-78357380D01*
X94046666Y-78405000D01*
X94141904Y-78500238D01*
X94189523Y-78690714D01*
X94189523Y-79024047D01*
X94141904Y-79214523D01*
X94046666Y-79309761D01*
X93951428Y-79357380D01*
X93760952Y-79357380D01*
X93665714Y-79309761D01*
X93570476Y-79214523D01*
X93522857Y-79024047D01*
X93522857Y-78690714D01*
X93570476Y-78500238D01*
X93665714Y-78405000D01*
X93760952Y-78357380D01*
X94808571Y-78357380D02*
X94999047Y-78357380D01*
X95094285Y-78405000D01*
X95189523Y-78500238D01*
X95237142Y-78690714D01*
X95237142Y-79024047D01*
X95189523Y-79214523D01*
X95094285Y-79309761D01*
X94999047Y-79357380D01*
X94808571Y-79357380D01*
X94713333Y-79309761D01*
X94618095Y-79214523D01*
X94570476Y-79024047D01*
X94570476Y-78690714D01*
X94618095Y-78500238D01*
X94713333Y-78405000D01*
X94808571Y-78357380D01*
X95522857Y-78357380D02*
X96094285Y-78357380D01*
X95808571Y-79357380D02*
X95808571Y-78357380D01*
X90338095Y-71200000D02*
X90242857Y-71152380D01*
X90100000Y-71152380D01*
X89957142Y-71200000D01*
X89861904Y-71295238D01*
X89814285Y-71390476D01*
X89766666Y-71580952D01*
X89766666Y-71723809D01*
X89814285Y-71914285D01*
X89861904Y-72009523D01*
X89957142Y-72104761D01*
X90100000Y-72152380D01*
X90195238Y-72152380D01*
X90338095Y-72104761D01*
X90385714Y-72057142D01*
X90385714Y-71723809D01*
X90195238Y-71723809D01*
X90814285Y-72152380D02*
X90814285Y-71152380D01*
X91385714Y-72152380D01*
X91385714Y-71152380D01*
X91861904Y-72152380D02*
X91861904Y-71152380D01*
X92100000Y-71152380D01*
X92242857Y-71200000D01*
X92338095Y-71295238D01*
X92385714Y-71390476D01*
X92433333Y-71580952D01*
X92433333Y-71723809D01*
X92385714Y-71914285D01*
X92338095Y-72009523D01*
X92242857Y-72104761D01*
X92100000Y-72152380D01*
X91861904Y-72152380D01*
X62222142Y-139312142D02*
X62174523Y-139359761D01*
X62031666Y-139407380D01*
X61936428Y-139407380D01*
X61793571Y-139359761D01*
X61698333Y-139264523D01*
X61650714Y-139169285D01*
X61603095Y-138978809D01*
X61603095Y-138835952D01*
X61650714Y-138645476D01*
X61698333Y-138550238D01*
X61793571Y-138455000D01*
X61936428Y-138407380D01*
X62031666Y-138407380D01*
X62174523Y-138455000D01*
X62222142Y-138502619D01*
X62603095Y-138502619D02*
X62650714Y-138455000D01*
X62745952Y-138407380D01*
X62984047Y-138407380D01*
X63079285Y-138455000D01*
X63126904Y-138502619D01*
X63174523Y-138597857D01*
X63174523Y-138693095D01*
X63126904Y-138835952D01*
X62555476Y-139407380D01*
X63174523Y-139407380D01*
X63793571Y-138407380D02*
X63888809Y-138407380D01*
X63984047Y-138455000D01*
X64031666Y-138502619D01*
X64079285Y-138597857D01*
X64126904Y-138788333D01*
X64126904Y-139026428D01*
X64079285Y-139216904D01*
X64031666Y-139312142D01*
X63984047Y-139359761D01*
X63888809Y-139407380D01*
X63793571Y-139407380D01*
X63698333Y-139359761D01*
X63650714Y-139312142D01*
X63603095Y-139216904D01*
X63555476Y-139026428D01*
X63555476Y-138788333D01*
X63603095Y-138597857D01*
X63650714Y-138502619D01*
X63698333Y-138455000D01*
X63793571Y-138407380D01*
X47458571Y-82859761D02*
X47601428Y-82907380D01*
X47839523Y-82907380D01*
X47934761Y-82859761D01*
X47982380Y-82812142D01*
X48030000Y-82716904D01*
X48030000Y-82621666D01*
X47982380Y-82526428D01*
X47934761Y-82478809D01*
X47839523Y-82431190D01*
X47649047Y-82383571D01*
X47553809Y-82335952D01*
X47506190Y-82288333D01*
X47458571Y-82193095D01*
X47458571Y-82097857D01*
X47506190Y-82002619D01*
X47553809Y-81955000D01*
X47649047Y-81907380D01*
X47887142Y-81907380D01*
X48030000Y-81955000D01*
X48315714Y-81907380D02*
X48887142Y-81907380D01*
X48601428Y-82907380D02*
X48601428Y-81907380D01*
X49172857Y-82621666D02*
X49649047Y-82621666D01*
X49077619Y-82907380D02*
X49410952Y-81907380D01*
X49744285Y-82907380D01*
X50410952Y-82383571D02*
X50553809Y-82431190D01*
X50601428Y-82478809D01*
X50649047Y-82574047D01*
X50649047Y-82716904D01*
X50601428Y-82812142D01*
X50553809Y-82859761D01*
X50458571Y-82907380D01*
X50077619Y-82907380D01*
X50077619Y-81907380D01*
X50410952Y-81907380D01*
X50506190Y-81955000D01*
X50553809Y-82002619D01*
X50601428Y-82097857D01*
X50601428Y-82193095D01*
X50553809Y-82288333D01*
X50506190Y-82335952D01*
X50410952Y-82383571D01*
X50077619Y-82383571D01*
X51601428Y-82907380D02*
X51030000Y-82907380D01*
X51315714Y-82907380D02*
X51315714Y-81907380D01*
X51220476Y-82050238D01*
X51125238Y-82145476D01*
X51030000Y-82193095D01*
X119372142Y-139312142D02*
X119324523Y-139359761D01*
X119181666Y-139407380D01*
X119086428Y-139407380D01*
X118943571Y-139359761D01*
X118848333Y-139264523D01*
X118800714Y-139169285D01*
X118753095Y-138978809D01*
X118753095Y-138835952D01*
X118800714Y-138645476D01*
X118848333Y-138550238D01*
X118943571Y-138455000D01*
X119086428Y-138407380D01*
X119181666Y-138407380D01*
X119324523Y-138455000D01*
X119372142Y-138502619D01*
X119753095Y-138502619D02*
X119800714Y-138455000D01*
X119895952Y-138407380D01*
X120134047Y-138407380D01*
X120229285Y-138455000D01*
X120276904Y-138502619D01*
X120324523Y-138597857D01*
X120324523Y-138693095D01*
X120276904Y-138835952D01*
X119705476Y-139407380D01*
X120324523Y-139407380D01*
X120705476Y-138502619D02*
X120753095Y-138455000D01*
X120848333Y-138407380D01*
X121086428Y-138407380D01*
X121181666Y-138455000D01*
X121229285Y-138502619D01*
X121276904Y-138597857D01*
X121276904Y-138693095D01*
X121229285Y-138835952D01*
X120657857Y-139407380D01*
X121276904Y-139407380D01*
X81811904Y-137822380D02*
X81811904Y-136822380D01*
X82050000Y-136822380D01*
X82192857Y-136870000D01*
X82288095Y-136965238D01*
X82335714Y-137060476D01*
X82383333Y-137250952D01*
X82383333Y-137393809D01*
X82335714Y-137584285D01*
X82288095Y-137679523D01*
X82192857Y-137774761D01*
X82050000Y-137822380D01*
X81811904Y-137822380D01*
X83288095Y-136822380D02*
X82811904Y-136822380D01*
X82764285Y-137298571D01*
X82811904Y-137250952D01*
X82907142Y-137203333D01*
X83145238Y-137203333D01*
X83240476Y-137250952D01*
X83288095Y-137298571D01*
X83335714Y-137393809D01*
X83335714Y-137631904D01*
X83288095Y-137727142D01*
X83240476Y-137774761D01*
X83145238Y-137822380D01*
X82907142Y-137822380D01*
X82811904Y-137774761D01*
X82764285Y-137727142D01*
X86335714Y-135947380D02*
X85764285Y-135947380D01*
X86050000Y-135947380D02*
X86050000Y-134947380D01*
X85954761Y-135090238D01*
X85859523Y-135185476D01*
X85764285Y-135233095D01*
X119911904Y-137822380D02*
X119911904Y-136822380D01*
X120150000Y-136822380D01*
X120292857Y-136870000D01*
X120388095Y-136965238D01*
X120435714Y-137060476D01*
X120483333Y-137250952D01*
X120483333Y-137393809D01*
X120435714Y-137584285D01*
X120388095Y-137679523D01*
X120292857Y-137774761D01*
X120150000Y-137822380D01*
X119911904Y-137822380D01*
X121340476Y-136822380D02*
X121150000Y-136822380D01*
X121054761Y-136870000D01*
X121007142Y-136917619D01*
X120911904Y-137060476D01*
X120864285Y-137250952D01*
X120864285Y-137631904D01*
X120911904Y-137727142D01*
X120959523Y-137774761D01*
X121054761Y-137822380D01*
X121245238Y-137822380D01*
X121340476Y-137774761D01*
X121388095Y-137727142D01*
X121435714Y-137631904D01*
X121435714Y-137393809D01*
X121388095Y-137298571D01*
X121340476Y-137250952D01*
X121245238Y-137203333D01*
X121054761Y-137203333D01*
X120959523Y-137250952D01*
X120911904Y-137298571D01*
X120864285Y-137393809D01*
X124435714Y-135947380D02*
X123864285Y-135947380D01*
X124150000Y-135947380D02*
X124150000Y-134947380D01*
X124054761Y-135090238D01*
X123959523Y-135185476D01*
X123864285Y-135233095D01*
X81272142Y-139312142D02*
X81224523Y-139359761D01*
X81081666Y-139407380D01*
X80986428Y-139407380D01*
X80843571Y-139359761D01*
X80748333Y-139264523D01*
X80700714Y-139169285D01*
X80653095Y-138978809D01*
X80653095Y-138835952D01*
X80700714Y-138645476D01*
X80748333Y-138550238D01*
X80843571Y-138455000D01*
X80986428Y-138407380D01*
X81081666Y-138407380D01*
X81224523Y-138455000D01*
X81272142Y-138502619D01*
X81653095Y-138502619D02*
X81700714Y-138455000D01*
X81795952Y-138407380D01*
X82034047Y-138407380D01*
X82129285Y-138455000D01*
X82176904Y-138502619D01*
X82224523Y-138597857D01*
X82224523Y-138693095D01*
X82176904Y-138835952D01*
X81605476Y-139407380D01*
X82224523Y-139407380D01*
X83176904Y-139407380D02*
X82605476Y-139407380D01*
X82891190Y-139407380D02*
X82891190Y-138407380D01*
X82795952Y-138550238D01*
X82700714Y-138645476D01*
X82605476Y-138693095D01*
D11*
X87828047Y-101981523D02*
X87404714Y-101376761D01*
X87102333Y-101981523D02*
X87102333Y-100711523D01*
X87586142Y-100711523D01*
X87707095Y-100772000D01*
X87767571Y-100832476D01*
X87828047Y-100953428D01*
X87828047Y-101134857D01*
X87767571Y-101255809D01*
X87707095Y-101316285D01*
X87586142Y-101376761D01*
X87102333Y-101376761D01*
X88190904Y-100711523D02*
X88614238Y-101981523D01*
X89037571Y-100711523D01*
X90126142Y-101981523D02*
X89400428Y-101981523D01*
X89763285Y-101981523D02*
X89763285Y-100711523D01*
X89642333Y-100892952D01*
X89521380Y-101013904D01*
X89400428Y-101074380D01*
D10*
X151860476Y-104484761D02*
X152003333Y-104532380D01*
X152241428Y-104532380D01*
X152336666Y-104484761D01*
X152384285Y-104437142D01*
X152431904Y-104341904D01*
X152431904Y-104246666D01*
X152384285Y-104151428D01*
X152336666Y-104103809D01*
X152241428Y-104056190D01*
X152050952Y-104008571D01*
X151955714Y-103960952D01*
X151908095Y-103913333D01*
X151860476Y-103818095D01*
X151860476Y-103722857D01*
X151908095Y-103627619D01*
X151955714Y-103580000D01*
X152050952Y-103532380D01*
X152289047Y-103532380D01*
X152431904Y-103580000D01*
X152765238Y-103532380D02*
X153003333Y-104532380D01*
X153193809Y-103818095D01*
X153384285Y-104532380D01*
X153622380Y-103532380D01*
X154527142Y-104532380D02*
X153955714Y-104532380D01*
X154241428Y-104532380D02*
X154241428Y-103532380D01*
X154146190Y-103675238D01*
X154050952Y-103770476D01*
X153955714Y-103818095D01*
X154908095Y-103627619D02*
X154955714Y-103580000D01*
X155050952Y-103532380D01*
X155289047Y-103532380D01*
X155384285Y-103580000D01*
X155431904Y-103627619D01*
X155479523Y-103722857D01*
X155479523Y-103818095D01*
X155431904Y-103960952D01*
X154860476Y-104532380D01*
X155479523Y-104532380D01*
X152455714Y-87872380D02*
X152455714Y-86872380D01*
X152693809Y-86872380D01*
X152836666Y-86920000D01*
X152931904Y-87015238D01*
X152979523Y-87110476D01*
X153027142Y-87300952D01*
X153027142Y-87443809D01*
X152979523Y-87634285D01*
X152931904Y-87729523D01*
X152836666Y-87824761D01*
X152693809Y-87872380D01*
X152455714Y-87872380D01*
X153979523Y-87872380D02*
X153408095Y-87872380D01*
X153693809Y-87872380D02*
X153693809Y-86872380D01*
X153598571Y-87015238D01*
X153503333Y-87110476D01*
X153408095Y-87158095D01*
X154598571Y-86872380D02*
X154693809Y-86872380D01*
X154789047Y-86920000D01*
X154836666Y-86967619D01*
X154884285Y-87062857D01*
X154931904Y-87253333D01*
X154931904Y-87491428D01*
X154884285Y-87681904D01*
X154836666Y-87777142D01*
X154789047Y-87824761D01*
X154693809Y-87872380D01*
X154598571Y-87872380D01*
X154503333Y-87824761D01*
X154455714Y-87777142D01*
X154408095Y-87681904D01*
X154360476Y-87491428D01*
X154360476Y-87253333D01*
X154408095Y-87062857D01*
X154455714Y-86967619D01*
X154503333Y-86920000D01*
X154598571Y-86872380D01*
X150455714Y-89747380D02*
X149884285Y-89747380D01*
X150170000Y-89747380D02*
X150170000Y-88747380D01*
X150074761Y-88890238D01*
X149979523Y-88985476D01*
X149884285Y-89033095D01*
X120586666Y-68604761D02*
X120729523Y-68652380D01*
X120967619Y-68652380D01*
X121062857Y-68604761D01*
X121110476Y-68557142D01*
X121158095Y-68461904D01*
X121158095Y-68366666D01*
X121110476Y-68271428D01*
X121062857Y-68223809D01*
X120967619Y-68176190D01*
X120777142Y-68128571D01*
X120681904Y-68080952D01*
X120634285Y-68033333D01*
X120586666Y-67938095D01*
X120586666Y-67842857D01*
X120634285Y-67747619D01*
X120681904Y-67700000D01*
X120777142Y-67652380D01*
X121015238Y-67652380D01*
X121158095Y-67700000D01*
X121491428Y-67652380D02*
X121729523Y-68652380D01*
X121920000Y-67938095D01*
X122110476Y-68652380D01*
X122348571Y-67652380D01*
X122777142Y-68652380D02*
X122967619Y-68652380D01*
X123062857Y-68604761D01*
X123110476Y-68557142D01*
X123205714Y-68414285D01*
X123253333Y-68223809D01*
X123253333Y-67842857D01*
X123205714Y-67747619D01*
X123158095Y-67700000D01*
X123062857Y-67652380D01*
X122872380Y-67652380D01*
X122777142Y-67700000D01*
X122729523Y-67747619D01*
X122681904Y-67842857D01*
X122681904Y-68080952D01*
X122729523Y-68176190D01*
X122777142Y-68223809D01*
X122872380Y-68271428D01*
X123062857Y-68271428D01*
X123158095Y-68223809D01*
X123205714Y-68176190D01*
X123253333Y-68080952D01*
X46886904Y-131897380D02*
X46886904Y-130897380D01*
X47125000Y-130897380D01*
X47267857Y-130945000D01*
X47363095Y-131040238D01*
X47410714Y-131135476D01*
X47458333Y-131325952D01*
X47458333Y-131468809D01*
X47410714Y-131659285D01*
X47363095Y-131754523D01*
X47267857Y-131849761D01*
X47125000Y-131897380D01*
X46886904Y-131897380D01*
X47791666Y-130897380D02*
X48410714Y-130897380D01*
X48077380Y-131278333D01*
X48220238Y-131278333D01*
X48315476Y-131325952D01*
X48363095Y-131373571D01*
X48410714Y-131468809D01*
X48410714Y-131706904D01*
X48363095Y-131802142D01*
X48315476Y-131849761D01*
X48220238Y-131897380D01*
X47934523Y-131897380D01*
X47839285Y-131849761D01*
X47791666Y-131802142D01*
X48235714Y-135947380D02*
X47664285Y-135947380D01*
X47950000Y-135947380D02*
X47950000Y-134947380D01*
X47854761Y-135090238D01*
X47759523Y-135185476D01*
X47664285Y-135233095D01*
X62761904Y-137822380D02*
X62761904Y-136822380D01*
X63000000Y-136822380D01*
X63142857Y-136870000D01*
X63238095Y-136965238D01*
X63285714Y-137060476D01*
X63333333Y-137250952D01*
X63333333Y-137393809D01*
X63285714Y-137584285D01*
X63238095Y-137679523D01*
X63142857Y-137774761D01*
X63000000Y-137822380D01*
X62761904Y-137822380D01*
X64190476Y-137155714D02*
X64190476Y-137822380D01*
X63952380Y-136774761D02*
X63714285Y-137489047D01*
X64333333Y-137489047D01*
X67285714Y-135947380D02*
X66714285Y-135947380D01*
X67000000Y-135947380D02*
X67000000Y-134947380D01*
X66904761Y-135090238D01*
X66809523Y-135185476D01*
X66714285Y-135233095D01*
X48196666Y-77494761D02*
X48339523Y-77542380D01*
X48577619Y-77542380D01*
X48672857Y-77494761D01*
X48720476Y-77447142D01*
X48768095Y-77351904D01*
X48768095Y-77256666D01*
X48720476Y-77161428D01*
X48672857Y-77113809D01*
X48577619Y-77066190D01*
X48387142Y-77018571D01*
X48291904Y-76970952D01*
X48244285Y-76923333D01*
X48196666Y-76828095D01*
X48196666Y-76732857D01*
X48244285Y-76637619D01*
X48291904Y-76590000D01*
X48387142Y-76542380D01*
X48625238Y-76542380D01*
X48768095Y-76590000D01*
X49101428Y-76542380D02*
X49339523Y-77542380D01*
X49530000Y-76828095D01*
X49720476Y-77542380D01*
X49958571Y-76542380D01*
X50815714Y-76542380D02*
X50339523Y-76542380D01*
X50291904Y-77018571D01*
X50339523Y-76970952D01*
X50434761Y-76923333D01*
X50672857Y-76923333D01*
X50768095Y-76970952D01*
X50815714Y-77018571D01*
X50863333Y-77113809D01*
X50863333Y-77351904D01*
X50815714Y-77447142D01*
X50768095Y-77494761D01*
X50672857Y-77542380D01*
X50434761Y-77542380D01*
X50339523Y-77494761D01*
X50291904Y-77447142D01*
X52062142Y-86192142D02*
X52014523Y-86239761D01*
X51871666Y-86287380D01*
X51776428Y-86287380D01*
X51633571Y-86239761D01*
X51538333Y-86144523D01*
X51490714Y-86049285D01*
X51443095Y-85858809D01*
X51443095Y-85715952D01*
X51490714Y-85525476D01*
X51538333Y-85430238D01*
X51633571Y-85335000D01*
X51776428Y-85287380D01*
X51871666Y-85287380D01*
X52014523Y-85335000D01*
X52062142Y-85382619D01*
X53014523Y-86287380D02*
X52443095Y-86287380D01*
X52728809Y-86287380D02*
X52728809Y-85287380D01*
X52633571Y-85430238D01*
X52538333Y-85525476D01*
X52443095Y-85573095D01*
X53347857Y-85287380D02*
X54014523Y-85287380D01*
X53585952Y-86287380D01*
X158011904Y-137852380D02*
X158011904Y-136852380D01*
X158250000Y-136852380D01*
X158392857Y-136900000D01*
X158488095Y-136995238D01*
X158535714Y-137090476D01*
X158583333Y-137280952D01*
X158583333Y-137423809D01*
X158535714Y-137614285D01*
X158488095Y-137709523D01*
X158392857Y-137804761D01*
X158250000Y-137852380D01*
X158011904Y-137852380D01*
X159154761Y-137280952D02*
X159059523Y-137233333D01*
X159011904Y-137185714D01*
X158964285Y-137090476D01*
X158964285Y-137042857D01*
X159011904Y-136947619D01*
X159059523Y-136900000D01*
X159154761Y-136852380D01*
X159345238Y-136852380D01*
X159440476Y-136900000D01*
X159488095Y-136947619D01*
X159535714Y-137042857D01*
X159535714Y-137090476D01*
X159488095Y-137185714D01*
X159440476Y-137233333D01*
X159345238Y-137280952D01*
X159154761Y-137280952D01*
X159059523Y-137328571D01*
X159011904Y-137376190D01*
X158964285Y-137471428D01*
X158964285Y-137661904D01*
X159011904Y-137757142D01*
X159059523Y-137804761D01*
X159154761Y-137852380D01*
X159345238Y-137852380D01*
X159440476Y-137804761D01*
X159488095Y-137757142D01*
X159535714Y-137661904D01*
X159535714Y-137471428D01*
X159488095Y-137376190D01*
X159440476Y-137328571D01*
X159345238Y-137280952D01*
X162535714Y-135977380D02*
X161964285Y-135977380D01*
X162250000Y-135977380D02*
X162250000Y-134977380D01*
X162154761Y-135120238D01*
X162059523Y-135215476D01*
X161964285Y-135263095D01*
X157472142Y-139312142D02*
X157424523Y-139359761D01*
X157281666Y-139407380D01*
X157186428Y-139407380D01*
X157043571Y-139359761D01*
X156948333Y-139264523D01*
X156900714Y-139169285D01*
X156853095Y-138978809D01*
X156853095Y-138835952D01*
X156900714Y-138645476D01*
X156948333Y-138550238D01*
X157043571Y-138455000D01*
X157186428Y-138407380D01*
X157281666Y-138407380D01*
X157424523Y-138455000D01*
X157472142Y-138502619D01*
X157853095Y-138502619D02*
X157900714Y-138455000D01*
X157995952Y-138407380D01*
X158234047Y-138407380D01*
X158329285Y-138455000D01*
X158376904Y-138502619D01*
X158424523Y-138597857D01*
X158424523Y-138693095D01*
X158376904Y-138835952D01*
X157805476Y-139407380D01*
X158424523Y-139407380D01*
X159281666Y-138740714D02*
X159281666Y-139407380D01*
X159043571Y-138359761D02*
X158805476Y-139074047D01*
X159424523Y-139074047D01*
X81216666Y-121944761D02*
X81359523Y-121992380D01*
X81597619Y-121992380D01*
X81692857Y-121944761D01*
X81740476Y-121897142D01*
X81788095Y-121801904D01*
X81788095Y-121706666D01*
X81740476Y-121611428D01*
X81692857Y-121563809D01*
X81597619Y-121516190D01*
X81407142Y-121468571D01*
X81311904Y-121420952D01*
X81264285Y-121373333D01*
X81216666Y-121278095D01*
X81216666Y-121182857D01*
X81264285Y-121087619D01*
X81311904Y-121040000D01*
X81407142Y-120992380D01*
X81645238Y-120992380D01*
X81788095Y-121040000D01*
X82121428Y-120992380D02*
X82359523Y-121992380D01*
X82550000Y-121278095D01*
X82740476Y-121992380D01*
X82978571Y-120992380D01*
X83264285Y-120992380D02*
X83883333Y-120992380D01*
X83550000Y-121373333D01*
X83692857Y-121373333D01*
X83788095Y-121420952D01*
X83835714Y-121468571D01*
X83883333Y-121563809D01*
X83883333Y-121801904D01*
X83835714Y-121897142D01*
X83788095Y-121944761D01*
X83692857Y-121992380D01*
X83407142Y-121992380D01*
X83311904Y-121944761D01*
X83264285Y-121897142D01*
X43172142Y-139312142D02*
X43124523Y-139359761D01*
X42981666Y-139407380D01*
X42886428Y-139407380D01*
X42743571Y-139359761D01*
X42648333Y-139264523D01*
X42600714Y-139169285D01*
X42553095Y-138978809D01*
X42553095Y-138835952D01*
X42600714Y-138645476D01*
X42648333Y-138550238D01*
X42743571Y-138455000D01*
X42886428Y-138407380D01*
X42981666Y-138407380D01*
X43124523Y-138455000D01*
X43172142Y-138502619D01*
X44124523Y-139407380D02*
X43553095Y-139407380D01*
X43838809Y-139407380D02*
X43838809Y-138407380D01*
X43743571Y-138550238D01*
X43648333Y-138645476D01*
X43553095Y-138693095D01*
X44600714Y-139407380D02*
X44791190Y-139407380D01*
X44886428Y-139359761D01*
X44934047Y-139312142D01*
X45029285Y-139169285D01*
X45076904Y-138978809D01*
X45076904Y-138597857D01*
X45029285Y-138502619D01*
X44981666Y-138455000D01*
X44886428Y-138407380D01*
X44695952Y-138407380D01*
X44600714Y-138455000D01*
X44553095Y-138502619D01*
X44505476Y-138597857D01*
X44505476Y-138835952D01*
X44553095Y-138931190D01*
X44600714Y-138978809D01*
X44695952Y-139026428D01*
X44886428Y-139026428D01*
X44981666Y-138978809D01*
X45029285Y-138931190D01*
X45076904Y-138835952D01*
X138366666Y-121944761D02*
X138509523Y-121992380D01*
X138747619Y-121992380D01*
X138842857Y-121944761D01*
X138890476Y-121897142D01*
X138938095Y-121801904D01*
X138938095Y-121706666D01*
X138890476Y-121611428D01*
X138842857Y-121563809D01*
X138747619Y-121516190D01*
X138557142Y-121468571D01*
X138461904Y-121420952D01*
X138414285Y-121373333D01*
X138366666Y-121278095D01*
X138366666Y-121182857D01*
X138414285Y-121087619D01*
X138461904Y-121040000D01*
X138557142Y-120992380D01*
X138795238Y-120992380D01*
X138938095Y-121040000D01*
X139271428Y-120992380D02*
X139509523Y-121992380D01*
X139700000Y-121278095D01*
X139890476Y-121992380D01*
X140128571Y-120992380D01*
X140414285Y-120992380D02*
X141080952Y-120992380D01*
X140652380Y-121992380D01*
X138422142Y-139312142D02*
X138374523Y-139359761D01*
X138231666Y-139407380D01*
X138136428Y-139407380D01*
X137993571Y-139359761D01*
X137898333Y-139264523D01*
X137850714Y-139169285D01*
X137803095Y-138978809D01*
X137803095Y-138835952D01*
X137850714Y-138645476D01*
X137898333Y-138550238D01*
X137993571Y-138455000D01*
X138136428Y-138407380D01*
X138231666Y-138407380D01*
X138374523Y-138455000D01*
X138422142Y-138502619D01*
X138803095Y-138502619D02*
X138850714Y-138455000D01*
X138945952Y-138407380D01*
X139184047Y-138407380D01*
X139279285Y-138455000D01*
X139326904Y-138502619D01*
X139374523Y-138597857D01*
X139374523Y-138693095D01*
X139326904Y-138835952D01*
X138755476Y-139407380D01*
X139374523Y-139407380D01*
X139707857Y-138407380D02*
X140326904Y-138407380D01*
X139993571Y-138788333D01*
X140136428Y-138788333D01*
X140231666Y-138835952D01*
X140279285Y-138883571D01*
X140326904Y-138978809D01*
X140326904Y-139216904D01*
X140279285Y-139312142D01*
X140231666Y-139359761D01*
X140136428Y-139407380D01*
X139850714Y-139407380D01*
X139755476Y-139359761D01*
X139707857Y-139312142D01*
X151598571Y-82859761D02*
X151741428Y-82907380D01*
X151979523Y-82907380D01*
X152074761Y-82859761D01*
X152122380Y-82812142D01*
X152170000Y-82716904D01*
X152170000Y-82621666D01*
X152122380Y-82526428D01*
X152074761Y-82478809D01*
X151979523Y-82431190D01*
X151789047Y-82383571D01*
X151693809Y-82335952D01*
X151646190Y-82288333D01*
X151598571Y-82193095D01*
X151598571Y-82097857D01*
X151646190Y-82002619D01*
X151693809Y-81955000D01*
X151789047Y-81907380D01*
X152027142Y-81907380D01*
X152170000Y-81955000D01*
X152455714Y-81907380D02*
X153027142Y-81907380D01*
X152741428Y-82907380D02*
X152741428Y-81907380D01*
X153312857Y-82621666D02*
X153789047Y-82621666D01*
X153217619Y-82907380D02*
X153550952Y-81907380D01*
X153884285Y-82907380D01*
X154550952Y-82383571D02*
X154693809Y-82431190D01*
X154741428Y-82478809D01*
X154789047Y-82574047D01*
X154789047Y-82716904D01*
X154741428Y-82812142D01*
X154693809Y-82859761D01*
X154598571Y-82907380D01*
X154217619Y-82907380D01*
X154217619Y-81907380D01*
X154550952Y-81907380D01*
X154646190Y-81955000D01*
X154693809Y-82002619D01*
X154741428Y-82097857D01*
X154741428Y-82193095D01*
X154693809Y-82288333D01*
X154646190Y-82335952D01*
X154550952Y-82383571D01*
X154217619Y-82383571D01*
X155170000Y-82002619D02*
X155217619Y-81955000D01*
X155312857Y-81907380D01*
X155550952Y-81907380D01*
X155646190Y-81955000D01*
X155693809Y-82002619D01*
X155741428Y-82097857D01*
X155741428Y-82193095D01*
X155693809Y-82335952D01*
X155122380Y-82907380D01*
X155741428Y-82907380D01*
X43116666Y-121944761D02*
X43259523Y-121992380D01*
X43497619Y-121992380D01*
X43592857Y-121944761D01*
X43640476Y-121897142D01*
X43688095Y-121801904D01*
X43688095Y-121706666D01*
X43640476Y-121611428D01*
X43592857Y-121563809D01*
X43497619Y-121516190D01*
X43307142Y-121468571D01*
X43211904Y-121420952D01*
X43164285Y-121373333D01*
X43116666Y-121278095D01*
X43116666Y-121182857D01*
X43164285Y-121087619D01*
X43211904Y-121040000D01*
X43307142Y-120992380D01*
X43545238Y-120992380D01*
X43688095Y-121040000D01*
X44021428Y-120992380D02*
X44259523Y-121992380D01*
X44450000Y-121278095D01*
X44640476Y-121992380D01*
X44878571Y-120992380D01*
X45783333Y-121992380D02*
X45211904Y-121992380D01*
X45497619Y-121992380D02*
X45497619Y-120992380D01*
X45402380Y-121135238D01*
X45307142Y-121230476D01*
X45211904Y-121278095D01*
X138961904Y-137822380D02*
X138961904Y-136822380D01*
X139200000Y-136822380D01*
X139342857Y-136870000D01*
X139438095Y-136965238D01*
X139485714Y-137060476D01*
X139533333Y-137250952D01*
X139533333Y-137393809D01*
X139485714Y-137584285D01*
X139438095Y-137679523D01*
X139342857Y-137774761D01*
X139200000Y-137822380D01*
X138961904Y-137822380D01*
X139866666Y-136822380D02*
X140533333Y-136822380D01*
X140104761Y-137822380D01*
X143485714Y-135947380D02*
X142914285Y-135947380D01*
X143200000Y-135947380D02*
X143200000Y-134947380D01*
X143104761Y-135090238D01*
X143009523Y-135185476D01*
X142914285Y-135233095D01*
X62166666Y-121944761D02*
X62309523Y-121992380D01*
X62547619Y-121992380D01*
X62642857Y-121944761D01*
X62690476Y-121897142D01*
X62738095Y-121801904D01*
X62738095Y-121706666D01*
X62690476Y-121611428D01*
X62642857Y-121563809D01*
X62547619Y-121516190D01*
X62357142Y-121468571D01*
X62261904Y-121420952D01*
X62214285Y-121373333D01*
X62166666Y-121278095D01*
X62166666Y-121182857D01*
X62214285Y-121087619D01*
X62261904Y-121040000D01*
X62357142Y-120992380D01*
X62595238Y-120992380D01*
X62738095Y-121040000D01*
X63071428Y-120992380D02*
X63309523Y-121992380D01*
X63500000Y-121278095D01*
X63690476Y-121992380D01*
X63928571Y-120992380D01*
X64261904Y-121087619D02*
X64309523Y-121040000D01*
X64404761Y-120992380D01*
X64642857Y-120992380D01*
X64738095Y-121040000D01*
X64785714Y-121087619D01*
X64833333Y-121182857D01*
X64833333Y-121278095D01*
X64785714Y-121420952D01*
X64214285Y-121992380D01*
X64833333Y-121992380D01*
X151981942Y-76939913D02*
X152124799Y-76987532D01*
X152362894Y-76987532D01*
X152458132Y-76939913D01*
X152505751Y-76892294D01*
X152553370Y-76797056D01*
X152553370Y-76701818D01*
X152505751Y-76606580D01*
X152458132Y-76558961D01*
X152362894Y-76511342D01*
X152172418Y-76463723D01*
X152077180Y-76416104D01*
X152029561Y-76368485D01*
X151981942Y-76273247D01*
X151981942Y-76178009D01*
X152029561Y-76082771D01*
X152077180Y-76035152D01*
X152172418Y-75987532D01*
X152410513Y-75987532D01*
X152553370Y-76035152D01*
X152886704Y-75987532D02*
X153124799Y-76987532D01*
X153315275Y-76273247D01*
X153505751Y-76987532D01*
X153743846Y-75987532D01*
X154648608Y-76987532D02*
X154077180Y-76987532D01*
X154362894Y-76987532D02*
X154362894Y-75987532D01*
X154267656Y-76130390D01*
X154172418Y-76225628D01*
X154077180Y-76273247D01*
X155267656Y-75987532D02*
X155362894Y-75987532D01*
X155458132Y-76035152D01*
X155505751Y-76082771D01*
X155553370Y-76178009D01*
X155600989Y-76368485D01*
X155600989Y-76606580D01*
X155553370Y-76797056D01*
X155505751Y-76892294D01*
X155458132Y-76939913D01*
X155362894Y-76987532D01*
X155267656Y-76987532D01*
X155172418Y-76939913D01*
X155124799Y-76892294D01*
X155077180Y-76797056D01*
X155029561Y-76606580D01*
X155029561Y-76368485D01*
X155077180Y-76178009D01*
X155124799Y-76082771D01*
X155172418Y-76035152D01*
X155267656Y-75987532D01*
X48791904Y-87872380D02*
X48791904Y-86872380D01*
X49030000Y-86872380D01*
X49172857Y-86920000D01*
X49268095Y-87015238D01*
X49315714Y-87110476D01*
X49363333Y-87300952D01*
X49363333Y-87443809D01*
X49315714Y-87634285D01*
X49268095Y-87729523D01*
X49172857Y-87824761D01*
X49030000Y-87872380D01*
X48791904Y-87872380D01*
X50315714Y-87872380D02*
X49744285Y-87872380D01*
X50030000Y-87872380D02*
X50030000Y-86872380D01*
X49934761Y-87015238D01*
X49839523Y-87110476D01*
X49744285Y-87158095D01*
X46315714Y-89747380D02*
X45744285Y-89747380D01*
X46030000Y-89747380D02*
X46030000Y-88747380D01*
X45934761Y-88890238D01*
X45839523Y-88985476D01*
X45744285Y-89033095D01*
X119316666Y-121944761D02*
X119459523Y-121992380D01*
X119697619Y-121992380D01*
X119792857Y-121944761D01*
X119840476Y-121897142D01*
X119888095Y-121801904D01*
X119888095Y-121706666D01*
X119840476Y-121611428D01*
X119792857Y-121563809D01*
X119697619Y-121516190D01*
X119507142Y-121468571D01*
X119411904Y-121420952D01*
X119364285Y-121373333D01*
X119316666Y-121278095D01*
X119316666Y-121182857D01*
X119364285Y-121087619D01*
X119411904Y-121040000D01*
X119507142Y-120992380D01*
X119745238Y-120992380D01*
X119888095Y-121040000D01*
X120221428Y-120992380D02*
X120459523Y-121992380D01*
X120650000Y-121278095D01*
X120840476Y-121992380D01*
X121078571Y-120992380D01*
X121888095Y-120992380D02*
X121697619Y-120992380D01*
X121602380Y-121040000D01*
X121554761Y-121087619D01*
X121459523Y-121230476D01*
X121411904Y-121420952D01*
X121411904Y-121801904D01*
X121459523Y-121897142D01*
X121507142Y-121944761D01*
X121602380Y-121992380D01*
X121792857Y-121992380D01*
X121888095Y-121944761D01*
X121935714Y-121897142D01*
X121983333Y-121801904D01*
X121983333Y-121563809D01*
X121935714Y-121468571D01*
X121888095Y-121420952D01*
X121792857Y-121373333D01*
X121602380Y-121373333D01*
X121507142Y-121420952D01*
X121459523Y-121468571D01*
X121411904Y-121563809D01*
X47720476Y-104484761D02*
X47863333Y-104532380D01*
X48101428Y-104532380D01*
X48196666Y-104484761D01*
X48244285Y-104437142D01*
X48291904Y-104341904D01*
X48291904Y-104246666D01*
X48244285Y-104151428D01*
X48196666Y-104103809D01*
X48101428Y-104056190D01*
X47910952Y-104008571D01*
X47815714Y-103960952D01*
X47768095Y-103913333D01*
X47720476Y-103818095D01*
X47720476Y-103722857D01*
X47768095Y-103627619D01*
X47815714Y-103580000D01*
X47910952Y-103532380D01*
X48149047Y-103532380D01*
X48291904Y-103580000D01*
X48625238Y-103532380D02*
X48863333Y-104532380D01*
X49053809Y-103818095D01*
X49244285Y-104532380D01*
X49482380Y-103532380D01*
X50387142Y-104532380D02*
X49815714Y-104532380D01*
X50101428Y-104532380D02*
X50101428Y-103532380D01*
X50006190Y-103675238D01*
X49910952Y-103770476D01*
X49815714Y-103818095D01*
X51339523Y-104532380D02*
X50768095Y-104532380D01*
X51053809Y-104532380D02*
X51053809Y-103532380D01*
X50958571Y-103675238D01*
X50863333Y-103770476D01*
X50768095Y-103818095D01*
X156202142Y-86192142D02*
X156154523Y-86239761D01*
X156011666Y-86287380D01*
X155916428Y-86287380D01*
X155773571Y-86239761D01*
X155678333Y-86144523D01*
X155630714Y-86049285D01*
X155583095Y-85858809D01*
X155583095Y-85715952D01*
X155630714Y-85525476D01*
X155678333Y-85430238D01*
X155773571Y-85335000D01*
X155916428Y-85287380D01*
X156011666Y-85287380D01*
X156154523Y-85335000D01*
X156202142Y-85382619D01*
X156583095Y-85382619D02*
X156630714Y-85335000D01*
X156725952Y-85287380D01*
X156964047Y-85287380D01*
X157059285Y-85335000D01*
X157106904Y-85382619D01*
X157154523Y-85477857D01*
X157154523Y-85573095D01*
X157106904Y-85715952D01*
X156535476Y-86287380D01*
X157154523Y-86287380D01*
X158011666Y-85287380D02*
X157821190Y-85287380D01*
X157725952Y-85335000D01*
X157678333Y-85382619D01*
X157583095Y-85525476D01*
X157535476Y-85715952D01*
X157535476Y-86096904D01*
X157583095Y-86192142D01*
X157630714Y-86239761D01*
X157725952Y-86287380D01*
X157916428Y-86287380D01*
X158011666Y-86239761D01*
X158059285Y-86192142D01*
X158106904Y-86096904D01*
X158106904Y-85858809D01*
X158059285Y-85763571D01*
X158011666Y-85715952D01*
X157916428Y-85668333D01*
X157725952Y-85668333D01*
X157630714Y-85715952D01*
X157583095Y-85763571D01*
X157535476Y-85858809D01*
X79946666Y-68604761D02*
X80089523Y-68652380D01*
X80327619Y-68652380D01*
X80422857Y-68604761D01*
X80470476Y-68557142D01*
X80518095Y-68461904D01*
X80518095Y-68366666D01*
X80470476Y-68271428D01*
X80422857Y-68223809D01*
X80327619Y-68176190D01*
X80137142Y-68128571D01*
X80041904Y-68080952D01*
X79994285Y-68033333D01*
X79946666Y-67938095D01*
X79946666Y-67842857D01*
X79994285Y-67747619D01*
X80041904Y-67700000D01*
X80137142Y-67652380D01*
X80375238Y-67652380D01*
X80518095Y-67700000D01*
X80851428Y-67652380D02*
X81089523Y-68652380D01*
X81280000Y-67938095D01*
X81470476Y-68652380D01*
X81708571Y-67652380D01*
X82518095Y-67985714D02*
X82518095Y-68652380D01*
X82280000Y-67604761D02*
X82041904Y-68319047D01*
X82660952Y-68319047D01*
X157416666Y-121944761D02*
X157559523Y-121992380D01*
X157797619Y-121992380D01*
X157892857Y-121944761D01*
X157940476Y-121897142D01*
X157988095Y-121801904D01*
X157988095Y-121706666D01*
X157940476Y-121611428D01*
X157892857Y-121563809D01*
X157797619Y-121516190D01*
X157607142Y-121468571D01*
X157511904Y-121420952D01*
X157464285Y-121373333D01*
X157416666Y-121278095D01*
X157416666Y-121182857D01*
X157464285Y-121087619D01*
X157511904Y-121040000D01*
X157607142Y-120992380D01*
X157845238Y-120992380D01*
X157988095Y-121040000D01*
X158321428Y-120992380D02*
X158559523Y-121992380D01*
X158750000Y-121278095D01*
X158940476Y-121992380D01*
X159178571Y-120992380D01*
X159702380Y-121420952D02*
X159607142Y-121373333D01*
X159559523Y-121325714D01*
X159511904Y-121230476D01*
X159511904Y-121182857D01*
X159559523Y-121087619D01*
X159607142Y-121040000D01*
X159702380Y-120992380D01*
X159892857Y-120992380D01*
X159988095Y-121040000D01*
X160035714Y-121087619D01*
X160083333Y-121182857D01*
X160083333Y-121230476D01*
X160035714Y-121325714D01*
X159988095Y-121373333D01*
X159892857Y-121420952D01*
X159702380Y-121420952D01*
X159607142Y-121468571D01*
X159559523Y-121516190D01*
X159511904Y-121611428D01*
X159511904Y-121801904D01*
X159559523Y-121897142D01*
X159607142Y-121944761D01*
X159702380Y-121992380D01*
X159892857Y-121992380D01*
X159988095Y-121944761D01*
X160035714Y-121897142D01*
X160083333Y-121801904D01*
X160083333Y-121611428D01*
X160035714Y-121516190D01*
X159988095Y-121468571D01*
X159892857Y-121420952D01*
D12*
X62972836Y-138155000D02*
X62757164Y-138155000D01*
X62972836Y-137435000D02*
X62757164Y-137435000D01*
X120122836Y-137435000D02*
X119907164Y-137435000D01*
X120122836Y-138155000D02*
X119907164Y-138155000D01*
X85500000Y-132670000D02*
X79600000Y-132670000D01*
X85500000Y-136570000D02*
X79600000Y-136570000D01*
X79600000Y-132670000D02*
X79600000Y-133745000D01*
X123600000Y-136570000D02*
X117700000Y-136570000D01*
X117700000Y-132670000D02*
X117700000Y-133745000D01*
X123600000Y-132670000D02*
X117700000Y-132670000D01*
X82022836Y-137435000D02*
X81807164Y-137435000D01*
X82022836Y-138155000D02*
X81807164Y-138155000D01*
D11*
X131600000Y-106100000D02*
X128738000Y-106100000D01*
X131600000Y-97100000D02*
X127396000Y-97100000D01*
X71600000Y-106100000D02*
X74399000Y-106100000D01*
X78353000Y-106100000D02*
X124603000Y-106100000D01*
X71600000Y-97100000D02*
X71600000Y-98793000D01*
X131600000Y-97100000D02*
X131600000Y-98793000D01*
X71600000Y-97100000D02*
X75633000Y-97100000D01*
X79913000Y-97100000D02*
X123333000Y-97100000D01*
X71600000Y-106100000D02*
X71600000Y-104525000D01*
X131600000Y-106100000D02*
X131600000Y-101600000D01*
X70664000Y-99627000D02*
G75*
G03*
X70664000Y-99627000I-146000J0D01*
G01*
D12*
X151470000Y-108380000D02*
X155870000Y-108380000D01*
X155870000Y-105100000D02*
X155870000Y-104980000D01*
X155870000Y-104980000D02*
X151470000Y-104980000D01*
X155870000Y-108380000D02*
X155870000Y-108260000D01*
X151470000Y-104980000D02*
X151470000Y-105100000D01*
X155870000Y-107250000D02*
X155870000Y-106110000D01*
X151470000Y-106110000D02*
X151470000Y-107250000D01*
X151470000Y-108260000D02*
X151470000Y-108380000D01*
X156620000Y-92120000D02*
X156620000Y-91045000D01*
X150720000Y-92120000D02*
X156620000Y-92120000D01*
X150720000Y-88220000D02*
X156620000Y-88220000D01*
X114820000Y-83300000D02*
X129020000Y-83300000D01*
X114820000Y-69100000D02*
X114820000Y-83300000D01*
X129020000Y-83300000D02*
X129020000Y-69100000D01*
X129020000Y-69100000D02*
X114820000Y-69100000D01*
X47400000Y-132670000D02*
X41500000Y-132670000D01*
X47400000Y-136570000D02*
X41500000Y-136570000D01*
X41500000Y-132670000D02*
X41500000Y-133745000D01*
X66450000Y-136570000D02*
X60550000Y-136570000D01*
X60550000Y-132670000D02*
X60550000Y-133745000D01*
X66450000Y-132670000D02*
X60550000Y-132670000D01*
X42430000Y-77990000D02*
X42430000Y-92190000D01*
X42430000Y-92190000D02*
X56630000Y-92190000D01*
X56630000Y-92190000D02*
X56630000Y-77990000D01*
X56630000Y-77990000D02*
X42430000Y-77990000D01*
X52597164Y-86635000D02*
X52812836Y-86635000D01*
X52597164Y-87355000D02*
X52812836Y-87355000D01*
X161700000Y-132700000D02*
X155800000Y-132700000D01*
X161700000Y-136600000D02*
X155800000Y-136600000D01*
X155800000Y-132700000D02*
X155800000Y-133775000D01*
X158222836Y-137435000D02*
X158007164Y-137435000D01*
X158222836Y-138155000D02*
X158007164Y-138155000D01*
X89650000Y-122440000D02*
X75450000Y-122440000D01*
X89650000Y-136640000D02*
X89650000Y-122440000D01*
X75450000Y-122440000D02*
X75450000Y-136640000D01*
X75450000Y-136640000D02*
X89650000Y-136640000D01*
X43922836Y-138155000D02*
X43707164Y-138155000D01*
X43922836Y-137435000D02*
X43707164Y-137435000D01*
X146800000Y-136640000D02*
X146800000Y-122440000D01*
X132600000Y-136640000D02*
X146800000Y-136640000D01*
X132600000Y-122440000D02*
X132600000Y-136640000D01*
X146800000Y-122440000D02*
X132600000Y-122440000D01*
X139172836Y-138155000D02*
X138957164Y-138155000D01*
X139172836Y-137435000D02*
X138957164Y-137435000D01*
X51550000Y-122440000D02*
X37350000Y-122440000D01*
X37350000Y-136640000D02*
X51550000Y-136640000D01*
X37350000Y-122440000D02*
X37350000Y-136640000D01*
X51550000Y-136640000D02*
X51550000Y-122440000D01*
X136750000Y-132670000D02*
X136750000Y-133745000D01*
X142650000Y-132670000D02*
X136750000Y-132670000D01*
X142650000Y-136570000D02*
X136750000Y-136570000D01*
X70600000Y-122440000D02*
X56400000Y-122440000D01*
X70600000Y-136640000D02*
X70600000Y-122440000D01*
X56400000Y-122440000D02*
X56400000Y-136640000D01*
X56400000Y-136640000D02*
X70600000Y-136640000D01*
X160770000Y-92190000D02*
X160770000Y-77990000D01*
X146570000Y-92190000D02*
X160770000Y-92190000D01*
X160770000Y-77990000D02*
X146570000Y-77990000D01*
X146570000Y-77990000D02*
X146570000Y-92190000D01*
X52480000Y-92120000D02*
X52480000Y-91045000D01*
X46580000Y-88220000D02*
X52480000Y-88220000D01*
X46580000Y-92120000D02*
X52480000Y-92120000D01*
X113550000Y-122440000D02*
X113550000Y-136640000D01*
X113550000Y-136640000D02*
X127750000Y-136640000D01*
X127750000Y-122440000D02*
X113550000Y-122440000D01*
X127750000Y-136640000D02*
X127750000Y-122440000D01*
X47330000Y-108380000D02*
X51730000Y-108380000D01*
X47330000Y-104980000D02*
X47330000Y-105100000D01*
X51730000Y-108380000D02*
X51730000Y-108260000D01*
X51730000Y-104980000D02*
X47330000Y-104980000D01*
X47330000Y-106110000D02*
X47330000Y-107250000D01*
X51730000Y-105100000D02*
X51730000Y-104980000D01*
X47330000Y-108260000D02*
X47330000Y-108380000D01*
X51730000Y-107250000D02*
X51730000Y-106110000D01*
X156737164Y-87355000D02*
X156952836Y-87355000D01*
X156737164Y-86635000D02*
X156952836Y-86635000D01*
X74180000Y-83300000D02*
X88380000Y-83300000D01*
X88380000Y-83300000D02*
X88380000Y-69100000D01*
X88380000Y-69100000D02*
X74180000Y-69100000D01*
X74180000Y-69100000D02*
X74180000Y-83300000D01*
X151650000Y-136640000D02*
X165850000Y-136640000D01*
X165850000Y-136640000D02*
X165850000Y-122440000D01*
X151650000Y-122440000D02*
X151650000Y-136640000D01*
X165850000Y-122440000D02*
X151650000Y-122440000D01*
M02*
