G04 #@! TF.GenerationSoftware,KiCad,Pcbnew,(6.0.5)*
G04 #@! TF.CreationDate,2022-05-28T18:11:49+02:00*
G04 #@! TF.ProjectId,minigeki,6d696e69-6765-46b6-992e-6b696361645f,REV1*
G04 #@! TF.SameCoordinates,Original*
G04 #@! TF.FileFunction,Paste,Bot*
G04 #@! TF.FilePolarity,Positive*
%FSLAX46Y46*%
G04 Gerber Fmt 4.6, Leading zero omitted, Abs format (unit mm)*
G04 Created by KiCad (PCBNEW (6.0.5)) date 2022-05-28 18:11:49*
%MOMM*%
%LPD*%
G01*
G04 APERTURE LIST*
G04 Aperture macros list*
%AMRoundRect*
0 Rectangle with rounded corners*
0 $1 Rounding radius*
0 $2 $3 $4 $5 $6 $7 $8 $9 X,Y pos of 4 corners*
0 Add a 4 corners polygon primitive as box body*
4,1,4,$2,$3,$4,$5,$6,$7,$8,$9,$2,$3,0*
0 Add four circle primitives for the rounded corners*
1,1,$1+$1,$2,$3*
1,1,$1+$1,$4,$5*
1,1,$1+$1,$6,$7*
1,1,$1+$1,$8,$9*
0 Add four rect primitives between the rounded corners*
20,1,$1+$1,$2,$3,$4,$5,0*
20,1,$1+$1,$4,$5,$6,$7,0*
20,1,$1+$1,$6,$7,$8,$9,0*
20,1,$1+$1,$8,$9,$2,$3,0*%
G04 Aperture macros list end*
%ADD10RoundRect,0.250000X-1.025000X-1.000000X1.025000X-1.000000X1.025000X1.000000X-1.025000X1.000000X0*%
%ADD11RoundRect,0.243750X0.243750X0.456250X-0.243750X0.456250X-0.243750X-0.456250X0.243750X-0.456250X0*%
%ADD12RoundRect,0.147500X0.172500X-0.147500X0.172500X0.147500X-0.172500X0.147500X-0.172500X-0.147500X0*%
%ADD13RoundRect,0.147500X-0.147500X-0.172500X0.147500X-0.172500X0.147500X0.172500X-0.147500X0.172500X0*%
%ADD14RoundRect,0.147500X-0.172500X0.147500X-0.172500X-0.147500X0.172500X-0.147500X0.172500X0.147500X0*%
%ADD15R,1.500000X2.000000*%
%ADD16R,3.800000X2.000000*%
%ADD17RoundRect,0.150000X0.650000X0.150000X-0.650000X0.150000X-0.650000X-0.150000X0.650000X-0.150000X0*%
%ADD18RoundRect,0.147500X0.147500X0.172500X-0.147500X0.172500X-0.147500X-0.172500X0.147500X-0.172500X0*%
%ADD19RoundRect,0.250000X0.292217X0.292217X-0.292217X0.292217X-0.292217X-0.292217X0.292217X-0.292217X0*%
%ADD20RoundRect,0.050000X0.387500X0.050000X-0.387500X0.050000X-0.387500X-0.050000X0.387500X-0.050000X0*%
%ADD21RoundRect,0.050000X0.050000X0.387500X-0.050000X0.387500X-0.050000X-0.387500X0.050000X-0.387500X0*%
%ADD22R,5.600000X2.100000*%
%ADD23RoundRect,0.140000X-0.170000X0.140000X-0.170000X-0.140000X0.170000X-0.140000X0.170000X0.140000X0*%
%ADD24RoundRect,0.135000X-0.185000X0.135000X-0.185000X-0.135000X0.185000X-0.135000X0.185000X0.135000X0*%
%ADD25R,0.850000X1.600000*%
%ADD26R,0.300000X1.150000*%
%ADD27RoundRect,0.140000X0.170000X-0.140000X0.170000X0.140000X-0.170000X0.140000X-0.170000X-0.140000X0*%
G04 APERTURE END LIST*
D10*
X114835000Y-73660000D03*
X127762000Y-71120000D03*
X42445000Y-82550000D03*
X55372000Y-80010000D03*
X75465000Y-127000000D03*
X88392000Y-124460000D03*
X132615000Y-127000000D03*
X145542000Y-124460000D03*
X37365000Y-127000000D03*
X50292000Y-124460000D03*
X56415000Y-127000000D03*
X69342000Y-124460000D03*
X146585000Y-82550000D03*
X159512000Y-80010000D03*
X113565000Y-127000000D03*
X126492000Y-124460000D03*
X74195000Y-73660000D03*
X87122000Y-71120000D03*
X151665000Y-127000000D03*
X164592000Y-124460000D03*
D11*
X91912500Y-89000000D03*
X90037500Y-89000000D03*
D12*
X96000000Y-94000000D03*
X96000000Y-93030000D03*
X97000000Y-94000000D03*
X97000000Y-93030000D03*
D13*
X106000000Y-101200000D03*
X106970000Y-101200000D03*
X103330000Y-82830000D03*
X104300000Y-82830000D03*
D14*
X110500000Y-81830000D03*
X110500000Y-82800000D03*
D15*
X89700000Y-79700000D03*
D16*
X92000000Y-86000000D03*
D15*
X92000000Y-79700000D03*
X94300000Y-79700000D03*
D17*
X110550000Y-85370000D03*
X110550000Y-86640000D03*
X110550000Y-87910000D03*
X110550000Y-89180000D03*
X103350000Y-89180000D03*
X103350000Y-87910000D03*
X103350000Y-86640000D03*
X103350000Y-85370000D03*
D18*
X101000000Y-109000000D03*
X100030000Y-109000000D03*
D12*
X109000000Y-82800000D03*
X109000000Y-81830000D03*
X100000000Y-93000000D03*
X100000000Y-92030000D03*
D18*
X94000000Y-101200000D03*
X93030000Y-101200000D03*
D14*
X99619000Y-106000000D03*
X99619000Y-106970000D03*
X99000000Y-93030000D03*
X99000000Y-94000000D03*
X98500000Y-106000000D03*
X98500000Y-106970000D03*
D11*
X93000000Y-76500000D03*
X91125000Y-76500000D03*
D13*
X106000000Y-97000000D03*
X106970000Y-97000000D03*
D18*
X94000000Y-94600000D03*
X93030000Y-94600000D03*
D19*
X100637500Y-99362500D03*
X99362500Y-99362500D03*
X99362500Y-100637500D03*
X100637500Y-100637500D03*
D20*
X103437500Y-97400000D03*
X103437500Y-97800000D03*
X103437500Y-98200000D03*
X103437500Y-98600000D03*
X103437500Y-99000000D03*
X103437500Y-99400000D03*
X103437500Y-99800000D03*
X103437500Y-100200000D03*
X103437500Y-100600000D03*
X103437500Y-101000000D03*
X103437500Y-101400000D03*
X103437500Y-101800000D03*
X103437500Y-102200000D03*
X103437500Y-102600000D03*
D21*
X102600000Y-103437500D03*
X102200000Y-103437500D03*
X101800000Y-103437500D03*
X101400000Y-103437500D03*
X101000000Y-103437500D03*
X100600000Y-103437500D03*
X100200000Y-103437500D03*
X99800000Y-103437500D03*
X99400000Y-103437500D03*
X99000000Y-103437500D03*
X98600000Y-103437500D03*
X98200000Y-103437500D03*
X97800000Y-103437500D03*
X97400000Y-103437500D03*
D20*
X96562500Y-102600000D03*
X96562500Y-102200000D03*
X96562500Y-101800000D03*
X96562500Y-101400000D03*
X96562500Y-101000000D03*
X96562500Y-100600000D03*
X96562500Y-100200000D03*
X96562500Y-99800000D03*
X96562500Y-99400000D03*
X96562500Y-99000000D03*
X96562500Y-98600000D03*
X96562500Y-98200000D03*
X96562500Y-97800000D03*
X96562500Y-97400000D03*
D21*
X97400000Y-96562500D03*
X97800000Y-96562500D03*
X98200000Y-96562500D03*
X98600000Y-96562500D03*
X99000000Y-96562500D03*
X99400000Y-96562500D03*
X99800000Y-96562500D03*
X100200000Y-96562500D03*
X100600000Y-96562500D03*
X101000000Y-96562500D03*
X101400000Y-96562500D03*
X101800000Y-96562500D03*
X102200000Y-96562500D03*
X102600000Y-96562500D03*
D13*
X103000000Y-109000000D03*
X103970000Y-109000000D03*
D14*
X98000000Y-93030000D03*
X98000000Y-94000000D03*
D12*
X101000000Y-93000000D03*
X101000000Y-92030000D03*
D18*
X94000000Y-96000000D03*
X93030000Y-96000000D03*
D14*
X101300000Y-106630000D03*
X101300000Y-107600000D03*
D22*
X106659000Y-113116000D03*
X97659000Y-113116000D03*
D23*
X165735000Y-106835000D03*
X165735000Y-107795000D03*
D24*
X105568000Y-69835000D03*
X105568000Y-70855000D03*
D25*
X168035000Y-104930000D03*
X169785000Y-104930000D03*
X169785000Y-108430000D03*
X168035000Y-108430000D03*
D26*
X95868000Y-72997000D03*
X96668000Y-72997000D03*
X97968000Y-72997000D03*
X98968000Y-72997000D03*
X99468000Y-72997000D03*
X100468000Y-72997000D03*
X101768000Y-72997000D03*
X102568000Y-72997000D03*
X102268000Y-72997000D03*
X101468000Y-72997000D03*
X100968000Y-72997000D03*
X99968000Y-72997000D03*
X98468000Y-72997000D03*
X97468000Y-72997000D03*
X96968000Y-72997000D03*
X96168000Y-72997000D03*
D27*
X37465000Y-106525000D03*
X37465000Y-105565000D03*
D24*
X93122000Y-69835000D03*
X93122000Y-70855000D03*
D25*
X35165000Y-108430000D03*
X33415000Y-108430000D03*
X33415000Y-104930000D03*
X35165000Y-104930000D03*
M02*
