G04 #@! TF.GenerationSoftware,KiCad,Pcbnew,(6.0.5)*
G04 #@! TF.CreationDate,2022-05-28T18:11:49+02:00*
G04 #@! TF.ProjectId,minigeki,6d696e69-6765-46b6-992e-6b696361645f,REV1*
G04 #@! TF.SameCoordinates,Original*
G04 #@! TF.FileFunction,Paste,Top*
G04 #@! TF.FilePolarity,Positive*
%FSLAX46Y46*%
G04 Gerber Fmt 4.6, Leading zero omitted, Abs format (unit mm)*
G04 Created by KiCad (PCBNEW (6.0.5)) date 2022-05-28 18:11:49*
%MOMM*%
%LPD*%
G01*
G04 APERTURE LIST*
G04 Aperture macros list*
%AMRoundRect*
0 Rectangle with rounded corners*
0 $1 Rounding radius*
0 $2 $3 $4 $5 $6 $7 $8 $9 X,Y pos of 4 corners*
0 Add a 4 corners polygon primitive as box body*
4,1,4,$2,$3,$4,$5,$6,$7,$8,$9,$2,$3,0*
0 Add four circle primitives for the rounded corners*
1,1,$1+$1,$2,$3*
1,1,$1+$1,$4,$5*
1,1,$1+$1,$6,$7*
1,1,$1+$1,$8,$9*
0 Add four rect primitives between the rounded corners*
20,1,$1+$1,$2,$3,$4,$5,0*
20,1,$1+$1,$4,$5,$6,$7,0*
20,1,$1+$1,$6,$7,$8,$9,0*
20,1,$1+$1,$8,$9,$2,$3,0*%
G04 Aperture macros list end*
%ADD10RoundRect,0.140000X0.140000X0.170000X-0.140000X0.170000X-0.140000X-0.170000X0.140000X-0.170000X0*%
%ADD11R,1.600000X0.850000*%
%ADD12R,1.050000X0.650000*%
%ADD13RoundRect,0.140000X-0.140000X-0.170000X0.140000X-0.170000X0.140000X0.170000X-0.140000X0.170000X0*%
G04 APERTURE END LIST*
D10*
X63345000Y-137795000D03*
X62385000Y-137795000D03*
X120495000Y-137795000D03*
X119535000Y-137795000D03*
D11*
X84300000Y-135495000D03*
X84300000Y-133745000D03*
X80800000Y-133745000D03*
X80800000Y-135495000D03*
X122400000Y-135495000D03*
X122400000Y-133745000D03*
X118900000Y-133745000D03*
X118900000Y-135495000D03*
D10*
X82395000Y-137795000D03*
X81435000Y-137795000D03*
D12*
X151595000Y-105605000D03*
X155745000Y-105605000D03*
X151595000Y-107755000D03*
X155745000Y-107755000D03*
D11*
X151920000Y-89295000D03*
X151920000Y-91045000D03*
X155420000Y-91045000D03*
X155420000Y-89295000D03*
X46200000Y-135495000D03*
X46200000Y-133745000D03*
X42700000Y-133745000D03*
X42700000Y-135495000D03*
X65250000Y-135495000D03*
X65250000Y-133745000D03*
X61750000Y-133745000D03*
X61750000Y-135495000D03*
D13*
X52225000Y-86995000D03*
X53185000Y-86995000D03*
D11*
X160500000Y-135525000D03*
X160500000Y-133775000D03*
X157000000Y-133775000D03*
X157000000Y-135525000D03*
D10*
X158595000Y-137795000D03*
X157635000Y-137795000D03*
X44295000Y-137795000D03*
X43335000Y-137795000D03*
X139545000Y-137795000D03*
X138585000Y-137795000D03*
D11*
X141450000Y-135495000D03*
X141450000Y-133745000D03*
X137950000Y-133745000D03*
X137950000Y-135495000D03*
X47780000Y-89295000D03*
X47780000Y-91045000D03*
X51280000Y-91045000D03*
X51280000Y-89295000D03*
D12*
X51605000Y-105605000D03*
X47455000Y-105605000D03*
X47455000Y-107755000D03*
X51605000Y-107755000D03*
D13*
X156365000Y-86995000D03*
X157325000Y-86995000D03*
M02*
