G04 #@! TF.GenerationSoftware,KiCad,Pcbnew,(6.0.5)*
G04 #@! TF.CreationDate,2022-05-28T18:11:49+02:00*
G04 #@! TF.ProjectId,minigeki,6d696e69-6765-46b6-992e-6b696361645f,REV1*
G04 #@! TF.SameCoordinates,Original*
G04 #@! TF.FileFunction,Soldermask,Top*
G04 #@! TF.FilePolarity,Negative*
%FSLAX46Y46*%
G04 Gerber Fmt 4.6, Leading zero omitted, Abs format (unit mm)*
G04 Created by KiCad (PCBNEW (6.0.5)) date 2022-05-28 18:11:49*
%MOMM*%
%LPD*%
G01*
G04 APERTURE LIST*
G04 Aperture macros list*
%AMRoundRect*
0 Rectangle with rounded corners*
0 $1 Rounding radius*
0 $2 $3 $4 $5 $6 $7 $8 $9 X,Y pos of 4 corners*
0 Add a 4 corners polygon primitive as box body*
4,1,4,$2,$3,$4,$5,$6,$7,$8,$9,$2,$3,0*
0 Add four circle primitives for the rounded corners*
1,1,$1+$1,$2,$3*
1,1,$1+$1,$4,$5*
1,1,$1+$1,$6,$7*
1,1,$1+$1,$8,$9*
0 Add four rect primitives between the rounded corners*
20,1,$1+$1,$2,$3,$4,$5,0*
20,1,$1+$1,$4,$5,$6,$7,0*
20,1,$1+$1,$6,$7,$8,$9,0*
20,1,$1+$1,$8,$9,$2,$3,0*%
G04 Aperture macros list end*
%ADD10RoundRect,0.191000X0.140000X0.170000X-0.140000X0.170000X-0.140000X-0.170000X0.140000X-0.170000X0*%
%ADD11C,3.150000*%
%ADD12C,4.089800*%
%ADD13RoundRect,0.051000X0.800000X0.425000X-0.800000X0.425000X-0.800000X-0.425000X0.800000X-0.425000X0*%
%ADD14C,1.902000*%
%ADD15C,3.102000*%
%ADD16RoundRect,0.051000X-0.525000X-0.325000X0.525000X-0.325000X0.525000X0.325000X-0.525000X0.325000X0*%
%ADD17RoundRect,0.051000X-0.800000X-0.425000X0.800000X-0.425000X0.800000X0.425000X-0.800000X0.425000X0*%
%ADD18C,3.152000*%
%ADD19C,1.852000*%
%ADD20C,4.102000*%
%ADD21RoundRect,0.191000X-0.140000X-0.170000X0.140000X-0.170000X0.140000X0.170000X-0.140000X0.170000X0*%
%ADD22RoundRect,0.051000X0.850000X-0.850000X0.850000X0.850000X-0.850000X0.850000X-0.850000X-0.850000X0*%
%ADD23O,1.802000X1.802000*%
%ADD24C,0.752000*%
%ADD25O,1.102000X2.202000*%
%ADD26O,1.102000X1.702000*%
G04 APERTURE END LIST*
D10*
X63345000Y-137795000D03*
X62385000Y-137795000D03*
D11*
X61468000Y-77470000D03*
D12*
X37592000Y-92680000D03*
X61468000Y-92680000D03*
D11*
X37592000Y-77470000D03*
D10*
X120495000Y-137795000D03*
X119535000Y-137795000D03*
D13*
X84300000Y-135495000D03*
X84300000Y-133745000D03*
X80800000Y-133745000D03*
X80800000Y-135495000D03*
X122400000Y-135495000D03*
X122400000Y-133745000D03*
X118900000Y-133745000D03*
X118900000Y-135495000D03*
D10*
X82395000Y-137795000D03*
X81435000Y-137795000D03*
D14*
X72350000Y-99850000D03*
X72350000Y-103350000D03*
X130850000Y-99850000D03*
D15*
X125500000Y-97400000D03*
X77700000Y-97400000D03*
X76440000Y-105800000D03*
X126760000Y-105800000D03*
D16*
X151595000Y-105605000D03*
X155745000Y-105605000D03*
X151595000Y-107755000D03*
X155745000Y-107755000D03*
D17*
X151920000Y-89295000D03*
X151920000Y-91045000D03*
X155420000Y-91045000D03*
X155420000Y-89295000D03*
D18*
X118110000Y-73660000D03*
D19*
X116840000Y-76200000D03*
X127000000Y-76200000D03*
D18*
X124460000Y-71120000D03*
D20*
X121920000Y-76200000D03*
D13*
X46200000Y-135495000D03*
X46200000Y-133745000D03*
X42700000Y-133745000D03*
X42700000Y-135495000D03*
X65250000Y-135495000D03*
X65250000Y-133745000D03*
X61750000Y-133745000D03*
X61750000Y-135495000D03*
D18*
X52070000Y-80010000D03*
D19*
X44450000Y-85090000D03*
D18*
X45720000Y-82550000D03*
D20*
X49530000Y-85090000D03*
D19*
X54610000Y-85090000D03*
D21*
X52225000Y-86995000D03*
X53185000Y-86995000D03*
D13*
X160500000Y-135525000D03*
X160500000Y-133775000D03*
X157000000Y-133775000D03*
X157000000Y-135525000D03*
D10*
X158595000Y-137795000D03*
X157635000Y-137795000D03*
D18*
X85090000Y-124460000D03*
D19*
X77470000Y-129540000D03*
D20*
X82550000Y-129540000D03*
D19*
X87630000Y-129540000D03*
D18*
X78740000Y-127000000D03*
D10*
X44295000Y-137795000D03*
X43335000Y-137795000D03*
D19*
X134620000Y-129540000D03*
X144780000Y-129540000D03*
D18*
X142240000Y-124460000D03*
X135890000Y-127000000D03*
D20*
X139700000Y-129540000D03*
D10*
X139545000Y-137795000D03*
X138585000Y-137795000D03*
D11*
X165608000Y-77470000D03*
D12*
X141732000Y-92680000D03*
X165608000Y-92680000D03*
D11*
X141732000Y-77470000D03*
D18*
X46990000Y-124460000D03*
X40640000Y-127000000D03*
D20*
X44450000Y-129540000D03*
D19*
X49530000Y-129540000D03*
X39370000Y-129540000D03*
D13*
X141450000Y-135495000D03*
X141450000Y-133745000D03*
X137950000Y-133745000D03*
X137950000Y-135495000D03*
D19*
X58420000Y-129540000D03*
D20*
X63500000Y-129540000D03*
D18*
X59690000Y-127000000D03*
D19*
X68580000Y-129540000D03*
D18*
X66040000Y-124460000D03*
D19*
X148590000Y-85090000D03*
D18*
X149860000Y-82550000D03*
D19*
X158750000Y-85090000D03*
D18*
X156210000Y-80010000D03*
D20*
X153670000Y-85090000D03*
D17*
X47780000Y-89295000D03*
X47780000Y-91045000D03*
X51280000Y-91045000D03*
X51280000Y-89295000D03*
D18*
X123190000Y-124460000D03*
D19*
X125730000Y-129540000D03*
X115570000Y-129540000D03*
D18*
X116840000Y-127000000D03*
D20*
X120650000Y-129540000D03*
D16*
X51605000Y-105605000D03*
X47455000Y-105605000D03*
X47455000Y-107755000D03*
X51605000Y-107755000D03*
D21*
X156365000Y-86995000D03*
X157325000Y-86995000D03*
D18*
X77470000Y-73660000D03*
D19*
X76200000Y-76200000D03*
X86360000Y-76200000D03*
D20*
X81280000Y-76200000D03*
D18*
X83820000Y-71120000D03*
D20*
X158750000Y-129540000D03*
D19*
X163830000Y-129540000D03*
X153670000Y-129540000D03*
D18*
X161290000Y-124460000D03*
X154940000Y-127000000D03*
D22*
X106592984Y-77289125D03*
D23*
X104052984Y-77289125D03*
D24*
X96328000Y-71932000D03*
X102108000Y-71932000D03*
D25*
X103538000Y-72432000D03*
D26*
X103538000Y-68252000D03*
X94898000Y-68252000D03*
D25*
X94898000Y-72432000D03*
M02*
