G04 #@! TF.GenerationSoftware,KiCad,Pcbnew,(6.0.5)*
G04 #@! TF.CreationDate,2022-06-09T18:29:16+02:00*
G04 #@! TF.ProjectId,minigeki,6d696e69-6765-46b6-992e-6b696361645f,v3.0*
G04 #@! TF.SameCoordinates,Original*
G04 #@! TF.FileFunction,Soldermask,Bot*
G04 #@! TF.FilePolarity,Negative*
%FSLAX46Y46*%
G04 Gerber Fmt 4.6, Leading zero omitted, Abs format (unit mm)*
G04 Created by KiCad (PCBNEW (6.0.5)) date 2022-06-09 18:29:16*
%MOMM*%
%LPD*%
G01*
G04 APERTURE LIST*
G04 Aperture macros list*
%AMRoundRect*
0 Rectangle with rounded corners*
0 $1 Rounding radius*
0 $2 $3 $4 $5 $6 $7 $8 $9 X,Y pos of 4 corners*
0 Add a 4 corners polygon primitive as box body*
4,1,4,$2,$3,$4,$5,$6,$7,$8,$9,$2,$3,0*
0 Add four circle primitives for the rounded corners*
1,1,$1+$1,$2,$3*
1,1,$1+$1,$4,$5*
1,1,$1+$1,$6,$7*
1,1,$1+$1,$8,$9*
0 Add four rect primitives between the rounded corners*
20,1,$1+$1,$2,$3,$4,$5,0*
20,1,$1+$1,$4,$5,$6,$7,0*
20,1,$1+$1,$6,$7,$8,$9,0*
20,1,$1+$1,$8,$9,$2,$3,0*%
G04 Aperture macros list end*
%ADD10RoundRect,0.051000X0.850000X-0.850000X0.850000X0.850000X-0.850000X0.850000X-0.850000X-0.850000X0*%
%ADD11O,1.802000X1.802000*%
%ADD12C,2.702000*%
%ADD13C,3.150000*%
%ADD14C,4.089800*%
%ADD15C,1.902000*%
%ADD16C,3.102000*%
%ADD17C,3.152000*%
%ADD18C,1.852000*%
%ADD19C,4.102000*%
%ADD20RoundRect,0.301000X-1.025000X-1.000000X1.025000X-1.000000X1.025000X1.000000X-1.025000X1.000000X0*%
%ADD21C,0.752000*%
%ADD22O,1.102000X2.202000*%
%ADD23O,1.102000X1.702000*%
G04 APERTURE END LIST*
D10*
X141722820Y-61871125D03*
D11*
X144262820Y-61871125D03*
D12*
X220333304Y-54610000D03*
D13*
X109081304Y-61976000D03*
D14*
X85205304Y-77186000D03*
X109081304Y-77186000D03*
D13*
X85205304Y-61976000D03*
D15*
X119963304Y-84356000D03*
X119963304Y-87856000D03*
X178463304Y-84356000D03*
D16*
X173113304Y-81906000D03*
X125313304Y-81906000D03*
X124053304Y-90306000D03*
X174373304Y-90306000D03*
D17*
X165723304Y-58166000D03*
D18*
X164453304Y-60706000D03*
X174613304Y-60706000D03*
D17*
X172073304Y-55626000D03*
D19*
X169533304Y-60706000D03*
D20*
X162448304Y-58166000D03*
X175375304Y-55626000D03*
D12*
X167501304Y-76454000D03*
D17*
X99683304Y-64516000D03*
D18*
X92063304Y-69596000D03*
D17*
X93333304Y-67056000D03*
D19*
X97143304Y-69596000D03*
D18*
X102223304Y-69596000D03*
D20*
X90058304Y-67056000D03*
X102985304Y-64516000D03*
D21*
X151987804Y-56514000D03*
X146207804Y-56514000D03*
D22*
X144777804Y-57014000D03*
D23*
X144777804Y-52834000D03*
X153417804Y-52834000D03*
D22*
X153417804Y-57014000D03*
D17*
X132703304Y-108966000D03*
D18*
X125083304Y-114046000D03*
D19*
X130163304Y-114046000D03*
D18*
X135243304Y-114046000D03*
D17*
X126353304Y-111506000D03*
D20*
X123078304Y-111506000D03*
X136005304Y-108966000D03*
D18*
X182233304Y-114046000D03*
X192393304Y-114046000D03*
D17*
X189853304Y-108966000D03*
X183503304Y-111506000D03*
D19*
X187313304Y-114046000D03*
D20*
X180228304Y-111506000D03*
X193155304Y-108966000D03*
D13*
X213221304Y-61976000D03*
X189345304Y-61976000D03*
D14*
X189345304Y-77186000D03*
X213221304Y-77186000D03*
D17*
X94603304Y-108966000D03*
X88253304Y-111506000D03*
D19*
X92063304Y-114046000D03*
D18*
X97143304Y-114046000D03*
X86983304Y-114046000D03*
D20*
X84978304Y-111506000D03*
X97905304Y-108966000D03*
D12*
X131941304Y-76454000D03*
D18*
X106033304Y-114046000D03*
D19*
X111113304Y-114046000D03*
D17*
X107303304Y-111506000D03*
D18*
X116193304Y-114046000D03*
D17*
X113653304Y-108966000D03*
D20*
X104028304Y-111506000D03*
X116955304Y-108966000D03*
D18*
X196203304Y-69596000D03*
D17*
X197473304Y-67056000D03*
D18*
X206363304Y-69596000D03*
D17*
X203823304Y-64516000D03*
D19*
X201283304Y-69596000D03*
D20*
X194198304Y-67056000D03*
X207125304Y-64516000D03*
D12*
X78601304Y-54610000D03*
D17*
X170803304Y-108966000D03*
D18*
X173343304Y-114046000D03*
X163183304Y-114046000D03*
D17*
X164453304Y-111506000D03*
D19*
X168263304Y-114046000D03*
D20*
X161178304Y-111506000D03*
X174105304Y-108966000D03*
D12*
X78601304Y-122682000D03*
D17*
X125083304Y-58166000D03*
D18*
X123813304Y-60706000D03*
X133973304Y-60706000D03*
D19*
X128893304Y-60706000D03*
D17*
X131433304Y-55626000D03*
D20*
X121808304Y-58166000D03*
X134735304Y-55626000D03*
D12*
X220333304Y-123190000D03*
D19*
X206363304Y-114046000D03*
D18*
X211443304Y-114046000D03*
X201283304Y-114046000D03*
D17*
X208903304Y-108966000D03*
X202553304Y-111506000D03*
D20*
X199278304Y-111506000D03*
X212205304Y-108966000D03*
M02*
